<?xml version="1.0" ?><!DOCTYPE svg  PUBLIC '-//W3C//DTD SVG 1.1//EN'  'http://www.w3.org/Graphics/SVG/1.1/DTD/svg11.dtd'><svg enable-background="new 0 0 24 24" height="24px" id="Layer_1" version="1.1" viewBox="0 0 24 24" width="24px" xml:space="preserve" xmlns="http://www.w3.org/2000/svg" xmlns:xlink="http://www.w3.org/1999/xlink"><g><rect height="2.3" width="2.3" x="4.7" y="9.2"/><polygon points="17,9.2 17,12 17,14.8 19.3,14.8 19.3,12 19.3,9.2  "/><path d="M13.9,0.5h-3.9c-5.3,0-9.6,4.3-9.6,9.6v3.9c0,5.3,4.3,9.6,9.6,9.6h10c1.9,0,3.4-1.5,3.4-3.4v-10   C23.5,4.8,19.2,0.5,13.9,0.5z M8,12v3.3c0,0.3-0.2,0.5-0.5,0.5S7,15.5,7,15.3v-2.8H4.7v2.8c0,0.3-0.2,0.5-0.5,0.5s-0.5-0.2-0.5-0.5   V12V8.7c0-0.3,0.2-0.5,0.5-0.5h3.3C7.8,8.2,8,8.5,8,8.7V12z M11.1,15.8H9.6c-0.3,0-0.5-0.2-0.5-0.5V12V8.7c0-0.3,0.2-0.5,0.5-0.5   s0.5,0.2,0.5,0.5V12v2.8h1c0.3,0,0.5,0.2,0.5,0.5S11.4,15.8,11.1,15.8z M14.4,15.8h-1.5c-0.3,0-0.5-0.2-0.5-0.5V12V8.7   c0-0.3,0.2-0.5,0.5-0.5s0.5,0.2,0.5,0.5V12v2.8h1c0.3,0,0.5,0.2,0.5,0.5S14.7,15.8,14.4,15.8z M20.2,12v3.3c0,0.3-0.2,0.5-0.5,0.5   h-3.3c-0.3,0-0.5-0.2-0.5-0.5V12V8.7c0-0.3,0.2-0.5,0.5-0.5h3.3c0.3,0,0.5,0.2,0.5,0.5V12z"/></g></svg>