<?xml version="1.0" ?><!DOCTYPE svg  PUBLIC '-//W3C//DTD SVG 1.1//EN'  'http://www.w3.org/Graphics/SVG/1.1/DTD/svg11.dtd'><svg enable-background="new 0 0 24 24" height="24px" id="Layer_1" version="1.1" viewBox="0 0 24 24" width="24px" xml:space="preserve" xmlns="http://www.w3.org/2000/svg" xmlns:xlink="http://www.w3.org/1999/xlink"><g><path d="M15,13.4c-0.5,0-0.9,0.5-0.9,1.2s0.4,1.2,0.9,1.2s0.9-0.5,0.9-1.2S15.5,13.4,15,13.4z"/><path d="M9,13.4c-0.5,0-0.9,0.5-0.9,1.2s0.4,1.2,0.9,1.2c0.5,0,0.9-0.5,0.9-1.2S9.5,13.4,9,13.4z"/><path d="M21.9,8.4c0.1-0.2,0.3-0.5,0.4-0.7c0.7-1.8,0.4-3.8-0.7-5.4C21.4,2.1,21.2,2,21,2c-1.9,0.3-3.5,1.6-4.3,3.4   c0,0.1-0.1,0.2-0.1,0.2c-0.1,0-0.3,0-0.4,0H7.7c-0.1,0-0.3,0-0.4,0c0-0.1-0.1-0.2-0.1-0.2C6.5,3.6,4.9,2.4,3,2   c-0.2,0-0.4,0-0.5,0.2C1.3,3.8,1,5.8,1.8,7.6C1.9,7.9,2,8.1,2.1,8.4c-1,1.3-1.6,2.9-1.6,4.5v1.9c0,4,3.2,7.2,7.2,7.2h8.6   c4,0,7.2-3.2,7.2-7.2v-1.9C23.5,11.2,22.9,9.6,21.9,8.4z M18.6,15c0,1.9-1.6,3.5-3.5,3.5H8.9c-1.9,0-3.5-1.6-3.5-3.5v-0.8   c0-1.9,1.6-3.5,3.5-3.5h6.2c1.9,0,3.5,1.6,3.5,3.5V15z"/></g></svg>