<?xml version="1.0" ?><!DOCTYPE svg  PUBLIC '-//W3C//DTD SVG 1.1//EN'  'http://www.w3.org/Graphics/SVG/1.1/DTD/svg11.dtd'><svg enable-background="new 0 0 24 24" height="24px" id="Layer_1" version="1.1" viewBox="0 0 24 24" width="24px" xml:space="preserve" xmlns="http://www.w3.org/2000/svg" xmlns:xlink="http://www.w3.org/1999/xlink"><g><path d="M12,2.1c-6.3,0-11.5,4.1-11.5,9.2c0,2.5,1.3,4.9,3.5,6.6l-1.7,3.3c-0.1,0.2-0.1,0.4,0.1,0.6c0.1,0.1,0.2,0.1,0.3,0.1   c0.1,0,0.2,0,0.2-0.1l4.3-2.2c1.5,0.5,3.1,0.8,4.7,0.8c6.3,0,11.5-4.1,11.5-9.1C23.5,6.2,18.3,2.1,12,2.1z M12,16.7   c-4.1,0-7.5-2.5-7.5-5.5S7.9,5.8,12,5.8s7.5,2.5,7.5,5.5S16.1,16.7,12,16.7z"/></g></svg>